<?xml version="1.0" encoding="UTF-8" standalone="no"?>
<svg
   xmlns:dc="http://purl.org/dc/elements/1.1/"
   xmlns:cc="http://creativecommons.org/ns#"
   xmlns:rdf="http://www.w3.org/1999/02/22-rdf-syntax-ns#"
   xmlns:svg="http://www.w3.org/2000/svg"
   xmlns="http://www.w3.org/2000/svg"
   xmlns:sodipodi="http://sodipodi.sourceforge.net/DTD/sodipodi-0.dtd"
   xmlns:inkscape="http://www.inkscape.org/namespaces/inkscape"
   version="1.1"
   id="svg2"
   xml:space="preserve"
   width="960"
   height="453.33334"
   viewBox="0 0 960 453.33334"
   sodipodi:docname="AirAsia_logo.ai"><metadata
     id="metadata8"><rdf:RDF><cc:Work
         rdf:about=""><dc:format>image/svg+xml</dc:format><dc:type
           rdf:resource="http://purl.org/dc/dcmitype/StillImage" /></cc:Work></rdf:RDF></metadata><defs
     id="defs6"><clipPath
       clipPathUnits="userSpaceOnUse"
       id="clipPath18"><path
         d="M 0,340 H 720 V 0 H 0 Z"
         id="path16" /></clipPath></defs><sodipodi:namedview
     pagecolor="#ffffff"
     bordercolor="#666666"
     borderopacity="1"
     objecttolerance="10"
     gridtolerance="10"
     guidetolerance="10"
     inkscape:pageopacity="0"
     inkscape:pageshadow="2"
     inkscape:window-width="640"
     inkscape:window-height="480"
     id="namedview4" /><g
     id="g10"
     inkscape:groupmode="layer"
     inkscape:label="AirAsia_logo"
     transform="matrix(1.3333333,0,0,-1.3333333,0,453.33333)"><g
       id="g12"><g
         id="g14"
         clip-path="url(#clipPath18)"><g
           id="g20"
           transform="translate(470.9521,201.1558)"><path
             d="M 0,0 -10.726,-71.624 H 13.496 L 23.991,-2.653 C 20.992,-4.96 17.3,-6.458 13.266,-6.458 8.073,-6.458 3.229,-3.921 0,0 m 13.38,22.606 c -6.692,0 -12.109,-5.421 -12.109,-12.11 0,-6.69 5.417,-12.11 12.109,-12.11 6.688,0 12.109,5.42 12.109,12.11 0,6.689 -5.421,12.11 -12.109,12.11 M -180.039,1.153 h -22.951 l -11.072,-72.777 h 24.22 l 7.728,51.21 c -1.846,2.652 -2.999,5.997 -2.999,9.573 0.115,4.613 1.96,8.995 5.074,11.994 m 11.996,0.115 c -6.69,0 -12.111,-5.419 -12.111,-12.109 0,-6.689 5.421,-12.11 12.111,-12.11 6.689,0 12.109,5.421 12.109,12.11 0,6.69 -5.42,12.109 -12.109,12.109 m -56.63,-7.726 c -5.19,0 -9.803,2.421 -12.917,5.997 l -10.727,-71.277 h 24.221 l 10.495,69.201 c -3.114,-2.308 -6.92,-3.921 -11.072,-3.921 m -2.768,5.074 c 6.574,-1.499 13.032,2.537 14.648,8.997 1.499,6.458 -2.422,13.032 -8.997,14.647 -6.458,1.499 -13.033,-2.423 -14.647,-8.996 -1.615,-6.46 2.421,-13.034 8.996,-14.648 M 79.121,-34.832 c 0,7.958 -6.343,14.533 -14.418,14.533 -8.073,0 -14.531,-6.459 -14.531,-14.533 0,-8.073 6.227,-14.531 14.531,-14.531 7.959,0 14.304,6.342 14.418,14.531 m 29.872,36.1 -11.072,-72.775 H 77.275 73.814 l 1.617,7.034 c -5.998,-7.034 -13.264,-9.111 -21.8,-9.111 -15.339,0 -27.565,12.802 -27.565,32.987 0,25.142 16.724,43.596 35.985,43.596 6.114,0 17.646,-0.807 21.453,-8.419 l 1.384,6.343 h 2.422 v 0.23 h 21.683 z m -211.525,-36.1 c 0,7.958 -6.345,14.533 -14.418,14.533 -8.073,0 -14.532,-6.459 -14.532,-14.533 0,-8.073 6.229,-14.531 14.532,-14.531 7.843,0 14.418,6.342 14.418,14.531 m 29.756,36.1 -11.073,-72.775 h -20.645 -3.459 l 1.614,7.034 c -5.996,-7.034 -13.264,-9.111 -21.798,-9.111 -15.34,0 -27.565,12.802 -27.565,32.987 0,25.142 16.723,43.596 35.984,43.596 6.114,0 17.646,-0.807 21.452,-8.419 l 1.384,6.343 h 2.422 v 0.23 h 21.684 z m -205.182,-36.1 c 0,7.958 -6.343,14.533 -14.417,14.533 -8.073,0 -14.532,-6.459 -14.532,-14.533 0,-8.073 6.228,-14.531 14.532,-14.531 7.958,0 14.532,6.342 14.417,14.531 m 29.872,36.1 -11.072,-72.775 h -20.529 -3.461 l 1.614,7.034 c -5.996,-7.034 -13.263,-9.111 -21.798,-9.111 -15.339,0 -27.565,12.802 -27.565,32.987 0,25.142 16.723,43.596 35.984,43.596 6.114,0 17.647,-0.807 21.454,-8.419 l 1.383,6.343 v 0.23 h 23.99 z m 201.723,-21.797 c 0,-2.769 4.036,-3.923 9.571,-5.998 10.034,-3.576 22.377,-8.535 22.377,-23.182 0,-13.956 -11.419,-23.875 -31.604,-23.875 -11.647,0 -22.489,3.345 -30.103,8.88 l 3.346,21.453 c 7.381,-6.573 18.568,-11.186 26.757,-11.186 5.654,0 8.42,2.306 8.42,4.613 0,2.883 -4.267,4.383 -9.688,6.342 -8.996,2.999 -22.26,7.383 -22.26,21.799 0,13.725 11.072,24.452 31.373,24.452 10.263,0 19.143,-2.884 25.604,-6.344 l -2.885,-19.723 c -5.305,2.999 -13.955,6.805 -22.374,6.921 -5.768,0.115 -8.534,-1.847 -8.534,-4.152"
             style="fill:#ff0000;fill-opacity:1;fill-rule:nonzero;stroke:none"
             id="path22" /></g></g></g></g></svg>
